<svg xmlns="http://www.w3.org/2000/svg" viewBox="0 0 1600 900" width="1600" height="900" role="img" aria-labelledby="title desc">
  <title id="title">Legacy Spec Factory skill overview</title>
  <desc id="desc">A family-based skill overview listing all 19 canonical skills and their current repository readiness status.</desc>
  <defs>
    <style>
      .bg { fill: #fffaf0; }
      .ink { fill: #20242a; }
      .muted { fill: #5d6673; }
      .blue { fill: #0f4c81; }
      .green { fill: #1f7a5a; }
      .orange { fill: #b36b00; }
      .panel { fill: #ffffff; stroke: #1d3557; stroke-width: 3.5; rx: 18; }
      .panel2 { fill: #f8fbff; stroke: #0f4c81; stroke-width: 3; rx: 16; }
      .field { fill: #e7f6ef; stroke: #1f7a5a; stroke-width: 2.2; rx: 12; }
      .repo { fill: #fff5db; stroke: #b36b00; stroke-width: 2.2; rx: 12; }
      .new { fill: #eef5ff; stroke: #0f4c81; stroke-width: 2.2; rx: 12; }
      .dash { stroke: #5d6673; stroke-width: 2.5; fill: none; stroke-dasharray: 9 8; }
      .title { font: 700 46px "Avenir Next", "Helvetica Neue", Arial, sans-serif; letter-spacing: 0; }
      .h2 { font: 700 25px "Avenir Next", "Helvetica Neue", Arial, sans-serif; }
      .h3 { font: 700 18px "Avenir Next", "Helvetica Neue", Arial, sans-serif; }
      .body { font: 500 18px "Avenir Next", "Helvetica Neue", Arial, sans-serif; }
      .small { font: 500 14px "Avenir Next", "Helvetica Neue", Arial, sans-serif; }
      .tiny { font: 700 12px "Avenir Next", "Helvetica Neue", Arial, sans-serif; }
      .mono { font: 600 13.5px "SFMono-Regular", Consolas, monospace; }
    </style>
  </defs>

  <rect class="bg" width="1600" height="900"/>
  <path class="dash" d="M56 86 C260 62 430 82 650 70 S1050 58 1250 78 1455 96 1544 72"/>
  <text x="70" y="70" class="title ink">Legacy Spec Factory Skill Overview</text>
  <text x="72" y="108" class="body muted">19 canonical skills | 6 families | 10 field-pilot ready | 9 repo-ready | latest: legacy-ibmi-runtime-evidence-miner</text>

  <rect x="55" y="145" width="360" height="145" class="panel2"/>
  <text x="82" y="185" class="h2 blue">Routing</text>
  <rect x="82" y="208" width="300" height="42" class="repo"/>
  <text x="100" y="235" class="mono ink">legacy-modernization-orchestrator</text>
  <text x="317" y="235" class="tiny orange">REPO</text>

  <rect x="445" y="145" width="710" height="365" class="panel"/>
  <text x="472" y="185" class="h2 blue">Layer 1 - IBM i Extraction</text>
  <text x="808" y="185" class="small muted">Reads platform-bound evidence and emits structured facts</text>

  <rect x="475" y="212" width="300" height="40" class="repo"/>
  <text x="492" y="238" class="mono ink">legacy-ibmi-evidence-intake</text>
  <text x="716" y="238" class="tiny orange">REPO</text>

  <rect x="810" y="212" width="300" height="40" class="repo"/>
  <text x="827" y="238" class="mono ink">legacy-ibmi-inventory</text>
  <text x="1051" y="238" class="tiny orange">REPO</text>

  <rect x="475" y="266" width="635" height="48" class="field"/>
  <text x="492" y="296" class="mono ink">legacy-ibmi-runtime-evidence-miner</text>
  <text x="820" y="296" class="tiny green">FIELD 9.57</text>
  <rect x="918" y="274" width="70" height="30" class="new"/>
  <text x="942" y="294" class="tiny blue">NEW</text>

  <rect x="475" y="330" width="300" height="40" class="repo"/>
  <text x="492" y="356" class="mono ink">legacy-ibmi-program-analyzer</text>
  <text x="716" y="356" class="tiny orange">REPO</text>

  <rect x="810" y="330" width="300" height="40" class="repo"/>
  <text x="827" y="356" class="mono ink">legacy-ibmi-flow-analyzer</text>
  <text x="1051" y="356" class="tiny orange">REPO</text>

  <rect x="475" y="384" width="300" height="40" class="repo"/>
  <text x="492" y="410" class="mono ink">legacy-ibmi-module-analyzer</text>
  <text x="716" y="410" class="tiny orange">REPO</text>

  <rect x="810" y="384" width="300" height="40" class="repo"/>
  <text x="827" y="410" class="mono ink">legacy-ibmi-data-model-analyzer</text>
  <text x="1051" y="410" class="tiny orange">REPO</text>

  <rect x="475" y="438" width="635" height="40" class="repo"/>
  <text x="492" y="464" class="mono ink">legacy-ibmi-screen-report-analyzer</text>
  <text x="1051" y="464" class="tiny orange">REPO</text>

  <rect x="1185" y="145" width="360" height="365" class="panel"/>
  <text x="1212" y="185" class="h2 blue">Layer 2 - Synthesis</text>
  <text x="1212" y="212" class="small muted">Consumes Layer 1 output, not raw code</text>

  <rect x="1212" y="240" width="300" height="42" class="field"/>
  <text x="1230" y="267" class="mono ink">legacy-brd-writer</text>
  <text x="1445" y="267" class="tiny green">FIELD</text>

  <rect x="1212" y="298" width="300" height="42" class="repo"/>
  <text x="1230" y="325" class="mono ink">legacy-spec-writer</text>
  <text x="1445" y="325" class="tiny orange">REPO</text>

  <rect x="1212" y="356" width="300" height="42" class="field"/>
  <text x="1230" y="383" class="mono ink">legacy-modernization-decision-writer</text>
  <text x="1445" y="383" class="tiny green">FIELD</text>

  <text x="1212" y="446" class="h2 blue">Verification</text>
  <rect x="1212" y="462" width="300" height="42" class="field"/>
  <text x="1230" y="489" class="mono ink">legacy-golden-master-test-planner</text>
  <text x="1445" y="489" class="tiny green">FIELD</text>

  <rect x="55" y="325" width="360" height="185" class="panel"/>
  <text x="82" y="365" class="h2 blue">Bridge / Handoff</text>
  <rect x="82" y="390" width="300" height="42" class="field"/>
  <text x="100" y="417" class="mono ink">legacy-traceability-packager</text>
  <text x="317" y="417" class="tiny green">FIELD</text>

  <rect x="82" y="448" width="300" height="42" class="field"/>
  <text x="100" y="475" class="mono ink">legacy-brd-to-sdd-handoff</text>
  <text x="317" y="475" class="tiny green">FIELD</text>

  <rect x="55" y="545" width="715" height="230" class="panel"/>
  <text x="82" y="585" class="h2 blue">Governance</text>
  <text x="252" y="585" class="small muted">Quality contracts, human gates, and runtime release evidence</text>

  <rect x="82" y="615" width="300" height="42" class="field"/>
  <text x="100" y="642" class="mono ink">legacy-step-contract</text>
  <text x="317" y="642" class="tiny green">FIELD</text>

  <rect x="420" y="615" width="300" height="42" class="field"/>
  <text x="438" y="642" class="mono ink">legacy-step-validator</text>
  <text x="655" y="642" class="tiny green">FIELD</text>

  <rect x="82" y="680" width="300" height="42" class="field"/>
  <text x="100" y="707" class="mono ink">legacy-sme-review-facilitator</text>
  <text x="317" y="707" class="tiny green">FIELD</text>

  <rect x="420" y="680" width="300" height="42" class="field"/>
  <text x="438" y="707" class="mono ink">legacy-runtime-matrix-tester</text>
  <text x="655" y="707" class="tiny green">FIELD</text>

  <rect x="805" y="545" width="740" height="230" class="panel2"/>
  <text x="832" y="585" class="h2 blue">Status Rules</text>
  <rect x="832" y="614" width="250" height="50" class="field"/>
  <text x="854" y="645" class="h3 green">FIELD-PILOT READY</text>
  <text x="1110" y="632" class="small muted">scorecard approved and Codex, Claude Code,</text>
  <text x="1110" y="656" class="small muted">OpenCode smoke tests passed.</text>

  <rect x="832" y="690" width="250" height="50" class="repo"/>
  <text x="887" y="721" class="h3 orange">REPO-READY</text>
  <text x="1110" y="708" class="small muted">accepted in repository but capped by score</text>
  <text x="1110" y="732" class="small muted">or incomplete runtime smoke coverage.</text>

  <rect x="55" y="812" width="1490" height="50" fill="#101820" rx="18"/>
  <text x="82" y="844" class="body" fill="#ffffff">Latest chain: evidence-intake -&gt; inventory -&gt; runtime-evidence-miner -&gt; program/flow/module/data/screen analyzers -&gt; BRD -&gt; SME -&gt; SDD handoff -&gt; Atlas.</text>
</svg>
